<?xml version="1.0" encoding="utf-8"?>
<!-- Generator: Adobe Illustrator 27.5.0, SVG Export Plug-In . SVG Version: 6.00 Build 0)  -->
<svg version="1.1" id="Layer_1" xmlns="http://www.w3.org/2000/svg" xmlns:xlink="http://www.w3.org/1999/xlink" x="0px" y="0px"
	 viewBox="0 0 425.2 425.2" style="enable-background:new 0 0 425.2 425.2;" xml:space="preserve">
<rect x="-0.001" style="fill:#FFFFFF;" width="425.2" height="425.2"/>
<g>
	
		<linearGradient id="SVGID_1_" gradientUnits="userSpaceOnUse" x1="2974.4441" y1="-456.3232" x2="3091.4456" y2="-456.3232" gradientTransform="matrix(-1.16 0.0115 0.0133 0.9999 3680.5571 641.3867)">
		<stop  offset="0" style="stop-color:#000000"/>
		<stop  offset="1" style="stop-color:#7D7E81"/>
	</linearGradient>
	<path style="fill:url(#SVGID_1_);" d="M192.367,315.418c0,0-158.703-20.376-84.109-178.926c0,0,5.508-8.632,12.131-12.804
		c0,0,13.143,19.609,31.725,45.496c0,0-23.525,6.43-26.414,15.412c-6.607,20.496,13.387,78.875,48.555,84.604
		c0,0,15.596,3.506,23.404,0.409c0,0,8.93,20.399,27.729,43.96C225.387,313.569,204.068,317.918,192.367,315.418z"/>
	
		<linearGradient id="SVGID_00000049211767508032761410000009174103713970252182_" gradientUnits="userSpaceOnUse" x1="2956.5303" y1="-385.1828" x2="2975.9609" y2="-385.1828" gradientTransform="matrix(-1.16 0.0115 0.0133 0.9999 3680.5571 641.3867)">
		<stop  offset="0" style="stop-color:#000000"/>
		<stop  offset="1" style="stop-color:#7D7E81"/>
	</linearGradient>
	<path style="fill:url(#SVGID_00000049211767508032761410000009174103713970252182_);" d="M223.307,289.509l4.561,8.876l15.709-6.81
		c5.083-2.206,0.697-11.153-4.558-8.877L223.307,289.509z"/>
	
		<linearGradient id="SVGID_00000138531541895236281920000002579459604519297933_" gradientUnits="userSpaceOnUse" x1="2967.165" y1="-377.8605" x2="2980.4529" y2="-377.8605" gradientTransform="matrix(-1.16 0.0115 0.0133 0.9999 3680.5571 641.3867)">
		<stop  offset="0" style="stop-color:#000000"/>
		<stop  offset="1" style="stop-color:#7D7E81"/>
	</linearGradient>
	<polygon style="fill:url(#SVGID_00000138531541895236281920000002579459604519297933_);" points="229.764,308.693 233.74,306.718 
		222.063,286.832 218.086,288.804 	"/>
	
		<linearGradient id="SVGID_00000118374560863130744050000003083555542322401172_" gradientUnits="userSpaceOnUse" x1="2971.4619" y1="-375.7956" x2="2982.9424" y2="-375.7956" gradientTransform="matrix(-1.16 0.0115 0.0133 0.9999 3680.5571 641.3867)">
		<stop  offset="0" style="stop-color:#000000"/>
		<stop  offset="1" style="stop-color:#7D7E81"/>
	</linearGradient>
	<polygon style="fill:url(#SVGID_00000118374560863130744050000003083555542322401172_);" points="224.778,308.966 228.759,306.992 
		219.232,290.767 215.25,292.731 	"/>
	
		<linearGradient id="SVGID_00000041263890365434291830000013540471622177928368_" gradientUnits="userSpaceOnUse" x1="2975.6367" y1="-374.2255" x2="2985.2786" y2="-374.2255" gradientTransform="matrix(-1.16 0.0115 0.0133 0.9999 3680.5571 641.3867)">
		<stop  offset="0" style="stop-color:#000000"/>
		<stop  offset="1" style="stop-color:#7D7E81"/>
	</linearGradient>
	<polygon style="fill:url(#SVGID_00000041263890365434291830000013540471622177928368_);" points="219.93,308.708 223.912,306.736 
		216.566,294.24 212.586,296.204 	"/>
	
		<linearGradient id="SVGID_00000098920567244511749550000007057327541932107930_" gradientUnits="userSpaceOnUse" x1="2989.9421" y1="-399.4553" x2="2995.1482" y2="-407.9442" gradientTransform="matrix(-1.16 0.0115 0.0133 0.9999 3680.5571 641.3867)">
		<stop  offset="0" style="stop-color:#58595B"/>
		<stop  offset="1" style="stop-color:#000000"/>
	</linearGradient>
	<path style="fill:url(#SVGID_00000098920567244511749550000007057327541932107930_);" d="M197.658,269.61
		c0,0-1.387,4.689,4.65,9.243c0,0,1.691-5.397,8.482-6.862c0,0-2.928-4.114-4.748-6.764
		C206.043,265.227,204.154,270.668,197.658,269.61z"/>
	
		<linearGradient id="SVGID_00000168110238036191952920000001641417178412752818_" gradientUnits="userSpaceOnUse" x1="1070.1152" y1="-3084.0171" x2="1079.4108" y2="-3084.0171" gradientTransform="matrix(-2.1286 1.1796 0.3989 0.5349 3733.6995 569.1374)">
		<stop  offset="0" style="stop-color:#8E9093"/>
		<stop  offset="0.1758" style="stop-color:#F0F0F1"/>
		<stop  offset="1" style="stop-color:#8E9093"/>
	</linearGradient>
	<polygon style="fill:url(#SVGID_00000168110238036191952920000001641417178412752818_);" points="213.955,203.636 232.691,192.578 
		217.534,170.938 198.8,181.995 	"/>
	
		<linearGradient id="SVGID_00000132769859374694989190000003222923295169636261_" gradientUnits="userSpaceOnUse" x1="1282.1381" y1="-5558.3276" x2="1291.3354" y2="-5558.3276" gradientTransform="matrix(-1.7336 0.9607 0.2252 0.3019 3710.2642 645.9828)">
		<stop  offset="0" style="stop-color:#8E9093"/>
		<stop  offset="0.1758" style="stop-color:#F0F0F1"/>
		<stop  offset="1" style="stop-color:#8E9093"/>
	</linearGradient>
	<polygon style="fill:url(#SVGID_00000132769859374694989190000003222923295169636261_);" points="224.49,214.704 239.752,205.701 
		231.193,193.479 215.93,202.493 	"/>
	
		<linearGradient id="SVGID_00000071550182489612063540000016393751254745539253_" gradientUnits="userSpaceOnUse" x1="1591.4198" y1="-7984.0098" x2="1600.5922" y2="-7984.0098" gradientTransform="matrix(-1.3646 0.7561 0.1576 0.2114 3671.1575 695.6706)">
		<stop  offset="0" style="stop-color:#8E9093"/>
		<stop  offset="0.1758" style="stop-color:#F0F0F1"/>
		<stop  offset="1" style="stop-color:#8E9093"/>
	</linearGradient>
	<polygon style="fill:url(#SVGID_00000071550182489612063540000016393751254745539253_);" points="231.952,222.408 243.967,215.324 
		237.983,206.774 225.977,213.862 	"/>
	
		<linearGradient id="SVGID_00000132049815399453330190000014791701112483469242_" gradientUnits="userSpaceOnUse" x1="1435.5989" y1="-30075.4648" x2="1444.6169" y2="-30075.4648" gradientTransform="matrix(-1.5271 0.8463 0.0428 0.0573 3724.4812 723.8568)">
		<stop  offset="0" style="stop-color:#000000"/>
		<stop  offset="0.4727" style="stop-color:#76777A"/>
		<stop  offset="1" style="stop-color:#000000"/>
	</linearGradient>
	<polygon style="fill:url(#SVGID_00000132049815399453330190000014791701112483469242_);" points="232.158,224.426 245.592,216.489 
		243.967,214.166 230.535,222.102 	"/>
	
		<linearGradient id="SVGID_00000052815071551678503090000010163858256159788200_" gradientUnits="userSpaceOnUse" x1="3008.4248" y1="956.0469" x2="3041.6838" y2="976.0311" gradientTransform="matrix(-1.4272 -0.7666 1.0037 1.9464 3557.0005 615.9503)">
		<stop  offset="0" style="stop-color:#000000"/>
		<stop  offset="0.4727" style="stop-color:#76777A"/>
		<stop  offset="1" style="stop-color:#000000"/>
	</linearGradient>
	<path style="fill:url(#SVGID_00000052815071551678503090000010163858256159788200_);" d="M199.498,189.046
		c2.986,2.675,24.408-6.669,25.359-15.475l-7.621-10.433l-25.188,15.615L199.498,189.046z"/>
	
		<linearGradient id="SVGID_00000013160987516582088540000016813438382692203408_" gradientUnits="userSpaceOnUse" x1="2863.2883" y1="-312.7574" x2="3067.4648" y2="-312.7574" gradientTransform="matrix(-1.16 0.0115 0.0133 0.9999 3680.5571 641.3867)">
		<stop  offset="0" style="stop-color:#000000"/>
		<stop  offset="1" style="stop-color:#7D7E81"/>
	</linearGradient>
	<path style="fill:url(#SVGID_00000013160987516582088540000016813438382692203408_);" d="M118.287,375.13
		c0.044,4.514,4.088,8.131,8.999,8.08l219.03-2.307c4.913-0.054,8.855-3.755,8.795-8.266l-0.277-22.247
		c-0.049-4.515-4.083-8.13-9.002-8.076l-219.027,2.303c-4.914,0.054-8.859,3.749-8.801,8.269L118.287,375.13z"/>
	
		<linearGradient id="SVGID_00000005229783708112661820000005905239688719868841_" gradientUnits="userSpaceOnUse" x1="2965.3904" y1="-293.3902" x2="2965.3904" y2="-304.8872" gradientTransform="matrix(-1.16 0.0115 0.0133 0.9999 3680.5571 641.3867)">
		<stop  offset="0" style="stop-color:#D5D6D7"/>
		<stop  offset="1" style="stop-color:#8E9093"/>
	</linearGradient>
	<polygon style="fill:url(#SVGID_00000005229783708112661820000005905239688719868841_);" points="118.385,383.302 355.218,380.811 
		355.065,369.458 118.242,371.956 	"/>
	
		<linearGradient id="SVGID_00000085947645192909961990000016559006262574483375_" gradientUnits="userSpaceOnUse" x1="2906.1003" y1="-434.9208" x2="2992.8289" y2="-434.9208" gradientTransform="matrix(-1.16 0.0115 0.0133 0.9999 3680.5571 641.3867)">
		<stop  offset="0" style="stop-color:#000000"/>
		<stop  offset="1" style="stop-color:#7D7E81"/>
	</linearGradient>
	<path style="fill:url(#SVGID_00000085947645192909961990000016559006262574483375_);" d="M209.961,271.606
		c1.213,1.764,3.76,2.3,5.688,1.19l85.859-49.607c1.923-1.113,2.502-3.451,1.287-5.219l-5.969-8.721
		c-1.214-1.766-3.755-2.298-5.684-1.19l-85.862,49.604c-1.923,1.116-2.501,3.455-1.291,5.22L209.961,271.606z"/>
	
		<linearGradient id="SVGID_00000182529077589746687410000017992967965613552257_" gradientUnits="userSpaceOnUse" x1="2168.8042" y1="-1788.6232" x2="2168.8042" y2="-1796.5651" gradientTransform="matrix(-0.9819 0.5326 0.6178 0.8464 3494.0637 607.911)">
		<stop  offset="0" style="stop-color:#D5D6D7"/>
		<stop  offset="1" style="stop-color:#8E9093"/>
	</linearGradient>
	<polygon style="fill:url(#SVGID_00000182529077589746687410000017992967965613552257_);" points="212.156,274.807 305,221.173 
		301.944,216.721 209.117,270.358 	"/>
	
		<linearGradient id="SVGID_00000121255235501000945920000006584851949997871772_" gradientUnits="userSpaceOnUse" x1="3002.9102" y1="-366.466" x2="3034.8589" y2="-366.466" gradientTransform="matrix(-1.16 0.0115 0.0133 0.9999 3680.5571 641.3867)">
		<stop  offset="0" style="stop-color:#000000"/>
		<stop  offset="1" style="stop-color:#7D7E81"/>
	</linearGradient>
	<path style="fill:url(#SVGID_00000121255235501000945920000006584851949997871772_);" d="M155.705,344.315l37.02-0.391
		l-0.694-55.258c-0.222-17.89-37.257-18.102-37.018,0.39L155.705,344.315z"/>
	<g>
		
			<linearGradient id="SVGID_00000090987118190580662460000005350525957123039163_" gradientUnits="userSpaceOnUse" x1="3008.0391" y1="-378.8528" x2="3029.7024" y2="-387.1686" gradientTransform="matrix(-1.16 0.0115 0.0133 0.9999 3680.5571 641.3867)">
			<stop  offset="0" style="stop-color:#6E6F72"/>
			<stop  offset="0.2061" style="stop-color:#9DA0A2"/>
			<stop  offset="0.4848" style="stop-color:#E5E6E7"/>
			<stop  offset="0.7455" style="stop-color:#9DA0A2"/>
			<stop  offset="1" style="stop-color:#6E6F72"/>
		</linearGradient>
		<path style="fill:url(#SVGID_00000090987118190580662460000005350525957123039163_);" d="M160.229,293.276
			c0.082,6.763,6.121,12.179,13.497,12.111c7.378-0.074,13.278-5.631,13.192-12.396c-0.08-6.768-6.129-12.19-13.504-12.115
			C166.049,280.954,160.139,286.5,160.229,293.276z"/>
		<path style="fill:#6E6F72;" d="M163.01,293.238c0.061,5.363,4.854,9.654,10.681,9.59c5.835-0.062,10.515-4.451,10.442-9.81
			c-0.064-5.355-4.848-9.652-10.686-9.592C167.626,283.493,162.932,287.881,163.01,293.238z"/>
		
			<radialGradient id="SVGID_00000017488399615900551770000009303022370269502894_" cx="3153.5229" cy="-384.5617" r="9.1208" gradientTransform="matrix(-1.089 0.0115 0.0125 0.9999 3612.5659 641.3867)" gradientUnits="userSpaceOnUse">
			<stop  offset="0" style="stop-color:#D5D6D7"/>
			<stop  offset="0.3406" style="stop-color:#D3D4D6"/>
			<stop  offset="0.5153" style="stop-color:#CCCED0"/>
			<stop  offset="0.6524" style="stop-color:#C1C3C5"/>
			<stop  offset="0.7698" style="stop-color:#B1B3B6"/>
			<stop  offset="0.8747" style="stop-color:#9EA0A2"/>
			<stop  offset="0.9692" style="stop-color:#87898C"/>
			<stop  offset="1" style="stop-color:#7F8183"/>
		</radialGradient>
		<path style="fill:url(#SVGID_00000017488399615900551770000009303022370269502894_);" d="M163.639,293.235
			c0.06,5.032,4.566,9.072,10.047,9.013c5.486-0.057,9.883-4.183,9.82-9.216c-0.07-5.044-4.563-9.079-10.046-9.022
			C167.977,284.068,163.586,288.198,163.639,293.235z"/>
	</g>
	
		<linearGradient id="SVGID_00000042729903787288794200000007986038585304880304_" gradientUnits="userSpaceOnUse" x1="3018.3516" y1="-535.1837" x2="3064.4041" y2="-535.1837" gradientTransform="matrix(-1.16 0.0115 0.0133 0.9999 3680.5571 641.3867)">
		<stop  offset="0" style="stop-color:#000000"/>
		<stop  offset="1" style="stop-color:#7D7E81"/>
	</linearGradient>
	<polygon style="fill:url(#SVGID_00000042729903787288794200000007986038585304880304_);" points="152.896,171.617 172.406,160.131 
		137.99,110.848 118.476,122.335 	"/>
	<polygon points="154.097,167.025 167.375,159.207 136.354,114.778 123.077,122.597 	"/>
	
		<linearGradient id="SVGID_00000038394242952882510740000013701716975214671492_" gradientUnits="userSpaceOnUse" x1="3023.6807" y1="-535.5165" x2="3059.4268" y2="-535.5165" gradientTransform="matrix(-1.16 0.0115 0.0133 0.9999 3680.5571 641.3867)">
		<stop  offset="0" style="stop-color:#000000"/>
		<stop  offset="1" style="stop-color:#7D7E81"/>
	</linearGradient>
	<polygon style="fill:url(#SVGID_00000038394242952882510740000013701716975214671492_);" points="154.26,165.901 166.207,158.88 
		136.195,115.903 124.258,122.929 	"/>
	<g>
		
			<linearGradient id="SVGID_00000021803276693817995490000005487522811370914715_" gradientUnits="userSpaceOnUse" x1="3034.3955" y1="-526.7067" x2="3057.4028" y2="-535.5384" gradientTransform="matrix(-1.16 0.0115 0.0133 0.9999 3680.5571 641.3867)">
			<stop  offset="0" style="stop-color:#6E6F72"/>
			<stop  offset="0.2061" style="stop-color:#9DA0A2"/>
			<stop  offset="0.4848" style="stop-color:#E5E6E7"/>
			<stop  offset="0.7455" style="stop-color:#9DA0A2"/>
			<stop  offset="1" style="stop-color:#6E6F72"/>
		</linearGradient>
		<path style="fill:url(#SVGID_00000021803276693817995490000005487522811370914715_);" d="M126.077,145.497
			c0.09,7.186,6.506,12.942,14.331,12.864c7.834-0.084,14.105-5.978,14.018-13.163c-0.092-7.187-6.5-12.948-14.34-12.867
			C132.256,132.409,125.983,138.307,126.077,145.497z"/>
		<path style="fill:#6E6F72;" d="M129.027,145.464c0.074,5.69,5.154,10.25,11.354,10.182c6.196-0.064,11.164-4.726,11.09-10.42
			c-0.074-5.691-5.15-10.251-11.354-10.189C133.918,135.105,128.965,139.773,129.027,145.464z"/>
		
			<radialGradient id="SVGID_00000114775887523547848290000006958863382555825024_" cx="3182.4207" cy="-532.6954" r="9.688" gradientTransform="matrix(-1.089 0.0115 0.0125 0.9999 3612.5659 641.3867)" gradientUnits="userSpaceOnUse">
			<stop  offset="0" style="stop-color:#D5D6D7"/>
			<stop  offset="0.3406" style="stop-color:#D3D4D6"/>
			<stop  offset="0.5153" style="stop-color:#CCCED0"/>
			<stop  offset="0.6524" style="stop-color:#C1C3C5"/>
			<stop  offset="0.7698" style="stop-color:#B1B3B6"/>
			<stop  offset="0.8747" style="stop-color:#9EA0A2"/>
			<stop  offset="0.9692" style="stop-color:#87898C"/>
			<stop  offset="1" style="stop-color:#7F8183"/>
		</radialGradient>
		<path style="fill:url(#SVGID_00000114775887523547848290000006958863382555825024_);" d="M129.699,145.453
			c0.07,5.35,4.837,9.636,10.666,9.576c5.832-0.062,10.506-4.445,10.438-9.794c-0.074-5.353-4.847-9.636-10.677-9.577
			C134.302,135.719,129.635,140.104,129.699,145.453z"/>
	</g>
	
		<linearGradient id="SVGID_00000159458299408281679930000010371833048366074787_" gradientUnits="userSpaceOnUse" x1="2975.0427" y1="-545.4346" x2="3051.863" y2="-545.4346" gradientTransform="matrix(-1.16 0.0115 0.0133 0.9999 3680.5571 641.3867)">
		<stop  offset="0" style="stop-color:#000000"/>
		<stop  offset="1" style="stop-color:#7D7E81"/>
	</linearGradient>
	<path style="fill:url(#SVGID_00000159458299408281679930000010371833048366074787_);" d="M186.061,179.553
		c13.914-1.856,37.396-20.797,36.538-21.722l-52.993-75.155c-3.873-5.497-40.416,16.226-36.545,21.716L186.061,179.553z"/>
	
		<linearGradient id="SVGID_00000091733833428191765890000003063297637485586872_" gradientUnits="userSpaceOnUse" x1="3038.7405" y1="-619.1041" x2="3064.9192" y2="-603.3745" gradientTransform="matrix(-1.16 0.0115 0.0133 0.9999 3680.5571 641.3867)">
		<stop  offset="0" style="stop-color:#58595B"/>
		<stop  offset="0.4606" style="stop-color:#D5D6D7"/>
		<stop  offset="1" style="stop-color:#58595B"/>
	</linearGradient>
	<path style="fill:url(#SVGID_00000091733833428191765890000003063297637485586872_);" d="M132.039,94.028
		c3.014,4.272,31.434-12.629,28.415-16.907l-27.882-40.537c-3.01-4.272-31.449,12.63-28.439,16.902L132.039,94.028z"/>
	
		<linearGradient id="SVGID_00000133517484247259915390000000620159055291004079_" gradientUnits="userSpaceOnUse" x1="3023.0483" y1="-598.8312" x2="3055.813" y2="-579.1443" gradientTransform="matrix(-1.16 0.0115 0.0133 0.9999 3680.5571 641.3867)">
		<stop  offset="0" style="stop-color:#8E9093"/>
		<stop  offset="0.4606" style="stop-color:#F0F0F1"/>
		<stop  offset="1" style="stop-color:#8E9093"/>
	</linearGradient>
	<path style="fill:url(#SVGID_00000133517484247259915390000000620159055291004079_);" d="M133.666,105.175
		c-3.643-5.158,31.746-28.492,36.533-21.723l-6.762-9.43c-6.418-5.771-41.365,14.506-36.542,21.721L133.666,105.175z"/>
	
		<linearGradient id="SVGID_00000103262481459004618160000007516143493520562349_" gradientUnits="userSpaceOnUse" x1="3050.9429" y1="-639.4781" x2="3076.5569" y2="-624.0878" gradientTransform="matrix(-1.16 0.0115 0.0133 0.9999 3680.5571 641.3867)">
		<stop  offset="0" style="stop-color:#8E9093"/>
		<stop  offset="0.4606" style="stop-color:#F0F0F1"/>
		<stop  offset="1" style="stop-color:#8E9093"/>
	</linearGradient>
	<path style="fill:url(#SVGID_00000103262481459004618160000007516143493520562349_);" d="M107.861,58.908
		c-2.836-4.012,24.517-22.455,28.238-17.194l-5.16-7.477c-4.991-4.479-32.16,11.461-28.397,17.079L107.861,58.908z"/>
	
		<linearGradient id="SVGID_00000040558994050613874900000013812848750648423838_" gradientUnits="userSpaceOnUse" x1="2976.9478" y1="-594.9404" x2="3009.8811" y2="-575.1522" gradientTransform="matrix(-1.1548 0.0366 0.029 0.9905 3678.3228 638.9064)">
		<stop  offset="0" style="stop-color:#8E9093"/>
		<stop  offset="0.4606" style="stop-color:#F0F0F1"/>
		<stop  offset="1" style="stop-color:#8E9093"/>
	</linearGradient>
	<path style="fill:url(#SVGID_00000040558994050613874900000013812848750648423838_);" d="M187.284,181.323
		c1.921,2.994,38.936-18.279,36.178-22.338l-2.985-4.18l-36.06,22.372L187.284,181.323z"/>
	
		<linearGradient id="SVGID_00000055682170029790428790000010883198353363103873_" gradientUnits="userSpaceOnUse" x1="2919.6929" y1="-393.1544" x2="2970.9497" y2="-393.1544" gradientTransform="matrix(-1.16 0.0115 0.0133 0.9999 3680.5571 641.3867)">
		<stop  offset="0" style="stop-color:#000000"/>
		<stop  offset="1" style="stop-color:#7D7E81"/>
	</linearGradient>
	<path style="fill:url(#SVGID_00000055682170029790428790000010883198353363103873_);" d="M241.49,304.06
		c1.835,3.272,38.662-9.832,46.956-25.073l-12.747-19.281c1.613,2.587-24.449,25.217-46.646,24.697L241.49,304.06z"/>
	
		<linearGradient id="SVGID_00000121994801558178433760000009292042302188885138_" gradientUnits="userSpaceOnUse" x1="2273.2339" y1="-1677.6852" x2="2258.2937" y2="-1702.0463" gradientTransform="matrix(-1.0048 0.4996 0.5796 0.8662 3509.1577 605.2596)">
		<stop  offset="0" style="stop-color:#8E9093"/>
		<stop  offset="0.4" style="stop-color:#FFFFFF"/>
		<stop  offset="1" style="stop-color:#8E9093"/>
	</linearGradient>
	<path style="fill:url(#SVGID_00000121994801558178433760000009292042302188885138_);" d="M230.538,286.767
		c1.841,3.274,38.222-9.619,46.571-24.803l-1.41-2.258c1.613,2.587-24.449,25.217-46.646,24.697L230.538,286.767z"/>
	
		<radialGradient id="SVGID_00000030477211820122734430000010286490871019480730_" cx="2180.2817" cy="1996.6879" r="13.6487" gradientTransform="matrix(-0.5548 -0.8605 -1.2354 0.6715 3929.3293 808.3807)" gradientUnits="userSpaceOnUse">
		<stop  offset="0" style="stop-color:#FFFFFF"/>
		<stop  offset="1" style="stop-color:#414042"/>
	</radialGradient>
	<path style="fill:url(#SVGID_00000030477211820122734430000010286490871019480730_);" d="M250.445,269.097
		c-12.787,6.955-22.563,13.488-21.393,15.307c1.18,1.827,14.432-0.897,27.229-7.847c12.775-6.961,20.585-15.026,19.417-16.851
		C274.506,257.881,263.239,262.145,250.445,269.097z"/>
	<path style="opacity:0.2;fill:#FFFFFF;" d="M254.637,267.446c-9.77,5.603-16.709,11.585-15.502,13.351
		c1.199,1.771,10.098-1.337,19.867-6.941c9.753-5.617,16.697-11.589,15.502-13.356C273.289,258.734,264.402,261.842,254.637,267.446
		z"/>
	
		<linearGradient id="SVGID_00000083782231173798777350000004231093576395184781_" gradientUnits="userSpaceOnUse" x1="2953.6704" y1="-378.5932" x2="2972.5024" y2="-378.5932" gradientTransform="matrix(-1.16 0.0115 0.0133 0.9999 3680.5571 641.3867)">
		<stop  offset="0" style="stop-color:#000000"/>
		<stop  offset="1" style="stop-color:#7D7E81"/>
	</linearGradient>
	<path style="fill:url(#SVGID_00000083782231173798777350000004231093576395184781_);" d="M227.404,295.919l5.195,8.846
		l14.379-6.474c5.096-2.203,0.693-11.153-4.555-8.876L227.404,295.919z"/>
	<g>
		
			<linearGradient id="SVGID_00000153693910472243920540000003137129275063775162_" gradientUnits="userSpaceOnUse" x1="1920.7524" y1="2600.6624" x2="1927.3569" y2="2598.127" gradientTransform="matrix(-0.4949 -0.9044 -1.0491 0.4266 3922.7239 925.5921)">
			<stop  offset="0" style="stop-color:#6E6F72"/>
			<stop  offset="0.2061" style="stop-color:#9DA0A2"/>
			<stop  offset="0.4848" style="stop-color:#E5E6E7"/>
			<stop  offset="0.7455" style="stop-color:#9DA0A2"/>
			<stop  offset="1" style="stop-color:#6E6F72"/>
		</linearGradient>
		<path style="fill:url(#SVGID_00000153693910472243920540000003137129275063775162_);" d="M241.837,291.178
			c-1.923,0.834-2.743,2.944-1.837,4.709c0.898,1.768,3.205,2.525,5.121,1.692c1.932-0.831,2.752-2.943,1.85-4.708
			C246.068,291.104,243.765,290.348,241.837,291.178z"/>
		<path style="fill:#6E6F72;" d="M242.184,291.849c-1.519,0.66-2.186,2.326-1.461,3.724c0.724,1.399,2.547,1.998,4.059,1.34
			c1.524-0.662,2.178-2.329,1.455-3.728C245.521,291.783,243.706,291.191,242.184,291.849z"/>
		
			<radialGradient id="SVGID_00000060713993171285976370000017754186669866632847_" cx="1979.8163" cy="2717.6064" r="2.6318" gradientTransform="matrix(-0.4646 -0.9044 -0.9849 0.4266 3839.8752 925.5921)" gradientUnits="userSpaceOnUse">
			<stop  offset="0" style="stop-color:#D5D6D7"/>
			<stop  offset="0.3406" style="stop-color:#D3D4D6"/>
			<stop  offset="0.5153" style="stop-color:#CCCED0"/>
			<stop  offset="0.6524" style="stop-color:#C1C3C5"/>
			<stop  offset="0.7698" style="stop-color:#B1B3B6"/>
			<stop  offset="0.8747" style="stop-color:#9EA0A2"/>
			<stop  offset="0.9692" style="stop-color:#87898C"/>
			<stop  offset="1" style="stop-color:#7F8183"/>
		</radialGradient>
		<path style="fill:url(#SVGID_00000060713993171285976370000017754186669866632847_);" d="M242.26,291.996
			c-1.43,0.622-2.045,2.19-1.367,3.507c0.668,1.314,2.381,1.876,3.807,1.257c1.439-0.62,2.058-2.186,1.375-3.505
			C245.395,291.942,243.686,291.381,242.26,291.996z"/>
	</g>
</g>
</svg>
